<mxfile host="app.diagrams.net" modified="2023-04-01T16:27:47.859Z" agent="Mozilla/5.0 (Macintosh; Intel Mac OS X 10_15_7) AppleWebKit/537.36 (KHTML, like Gecko) Chrome/111.0.0.0 Safari/537.36" etag="0B5xiMGWuYTqZTvcMlBT" version="21.1.2" type="device">
  <diagram id="aZzCiTEgSDXypdaJf5oC" name="Page-1">
    <mxGraphModel dx="3675" dy="709" grid="1" gridSize="10" guides="1" tooltips="1" connect="1" arrows="1" fold="1" page="1" pageScale="1" pageWidth="827" pageHeight="1169" math="0" shadow="0">
      <root>
        <mxCell id="0" />
        <mxCell id="1" parent="0" />
        <mxCell id="qEZxZb18fNbEGhvGFvHe-20" value="" style="rounded=1;whiteSpace=wrap;html=1;arcSize=5;imageHeight=24;fillColor=#F5F5F5;" vertex="1" parent="1">
          <mxGeometry x="-2470" y="190" width="520" height="670" as="geometry" />
        </mxCell>
        <mxCell id="qcJDbEwE1XpdXQrslt51-1" value="" style="rounded=1;whiteSpace=wrap;html=1;arcSize=5;imageHeight=24;" parent="1" vertex="1">
          <mxGeometry x="-2460" y="220" width="500" height="630" as="geometry" />
        </mxCell>
        <mxCell id="qcJDbEwE1XpdXQrslt51-2" value="" style="rounded=1;whiteSpace=wrap;html=1;arcSize=5;fillColor=#EDEDED;" parent="1" vertex="1">
          <mxGeometry x="-2450" y="250" width="480" height="590" as="geometry" />
        </mxCell>
        <mxCell id="qcJDbEwE1XpdXQrslt51-55" value="" style="rounded=1;whiteSpace=wrap;html=1;arcSize=5;" parent="1" vertex="1">
          <mxGeometry x="-2440" y="280" width="460" height="490" as="geometry" />
        </mxCell>
        <mxCell id="qcJDbEwE1XpdXQrslt51-10" value="" style="rounded=1;whiteSpace=wrap;html=1;arcSize=5;fillColor=#CCCCCC;" parent="1" vertex="1">
          <mxGeometry x="-2430" y="310" width="440" height="390" as="geometry" />
        </mxCell>
        <mxCell id="qcJDbEwE1XpdXQrslt51-26" value="" style="rounded=1;whiteSpace=wrap;html=1;arcSize=30;imageHeight=24;" parent="1" vertex="1">
          <mxGeometry x="-2440" y="780" width="460" height="50" as="geometry" />
        </mxCell>
        <mxCell id="qcJDbEwE1XpdXQrslt51-6" value="" style="rounded=1;whiteSpace=wrap;html=1;arcSize=28;imageHeight=24;fillColor=#F0F0F0;" parent="1" vertex="1">
          <mxGeometry x="-2430" y="710" width="440" height="50" as="geometry" />
        </mxCell>
        <mxCell id="qcJDbEwE1XpdXQrslt51-17" value="kernel space" style="text;html=1;strokeColor=none;fillColor=none;align=center;verticalAlign=middle;whiteSpace=wrap;rounded=0;" parent="1" vertex="1">
          <mxGeometry x="-2415" y="710" width="85" height="30" as="geometry" />
        </mxCell>
        <mxCell id="qcJDbEwE1XpdXQrslt51-18" value="user space" style="text;html=1;strokeColor=none;fillColor=none;align=center;verticalAlign=middle;whiteSpace=wrap;rounded=0;" parent="1" vertex="1">
          <mxGeometry x="-2405" y="420" width="95" height="30" as="geometry" />
        </mxCell>
        <mxCell id="qcJDbEwE1XpdXQrslt51-24" value="software" style="text;html=1;strokeColor=none;fillColor=none;align=center;verticalAlign=middle;whiteSpace=wrap;rounded=0;" parent="1" vertex="1">
          <mxGeometry x="-2430" y="250" width="60" height="30" as="geometry" />
        </mxCell>
        <mxCell id="qcJDbEwE1XpdXQrslt51-25" value="hardware" style="text;html=1;strokeColor=none;fillColor=none;align=center;verticalAlign=middle;whiteSpace=wrap;rounded=0;" parent="1" vertex="1">
          <mxGeometry x="-2440" y="220" width="60" height="30" as="geometry" />
        </mxCell>
        <mxCell id="qcJDbEwE1XpdXQrslt51-54" value="firmware" style="text;html=1;strokeColor=none;fillColor=none;align=center;verticalAlign=middle;whiteSpace=wrap;rounded=0;" parent="1" vertex="1">
          <mxGeometry x="-2437.5" y="780" width="75" height="20" as="geometry" />
        </mxCell>
        <mxCell id="qcJDbEwE1XpdXQrslt51-57" value="operating system" style="text;html=1;strokeColor=none;fillColor=none;align=center;verticalAlign=middle;whiteSpace=wrap;rounded=0;" parent="1" vertex="1">
          <mxGeometry x="-2390" y="400" width="95" as="geometry" />
        </mxCell>
        <mxCell id="jprQ5lEr49byNqmnvGfp-50" value="" style="group;arcSize=8;" parent="1" vertex="1" connectable="0">
          <mxGeometry x="-2127" y="390" width="130" height="250" as="geometry" />
        </mxCell>
        <mxCell id="qEZxZb18fNbEGhvGFvHe-13" value="" style="rounded=1;whiteSpace=wrap;html=1;arcSize=8;fillColor=#F5F5F5;" vertex="1" parent="jprQ5lEr49byNqmnvGfp-50">
          <mxGeometry x="-10" y="-39.2156862745098" width="140" height="289.2156862745098" as="geometry" />
        </mxCell>
        <mxCell id="jprQ5lEr49byNqmnvGfp-51" value="" style="rounded=1;whiteSpace=wrap;html=1;arcSize=5;imageHeight=24;" parent="jprQ5lEr49byNqmnvGfp-50" vertex="1">
          <mxGeometry width="120" height="235.2941176470588" as="geometry" />
        </mxCell>
        <mxCell id="jprQ5lEr49byNqmnvGfp-52" value="" style="rounded=1;whiteSpace=wrap;html=1;arcSize=5;fillColor=#E8E8E8;" parent="jprQ5lEr49byNqmnvGfp-50" vertex="1">
          <mxGeometry x="10" y="29.41176470588235" width="100" height="196.078431372549" as="geometry" />
        </mxCell>
        <mxCell id="jprQ5lEr49byNqmnvGfp-53" value="" style="rounded=1;whiteSpace=wrap;html=1;arcSize=15;" parent="jprQ5lEr49byNqmnvGfp-50" vertex="1">
          <mxGeometry x="15" y="58.8235294117647" width="85" height="156.8627450980392" as="geometry" />
        </mxCell>
        <mxCell id="jprQ5lEr49byNqmnvGfp-54" value="" style="rounded=1;whiteSpace=wrap;html=1;arcSize=15;fillColor=#CCCCCC;" parent="jprQ5lEr49byNqmnvGfp-50" vertex="1">
          <mxGeometry x="22.5" y="88.23529411764706" width="67.5" height="68.62745098039215" as="geometry" />
        </mxCell>
        <mxCell id="jprQ5lEr49byNqmnvGfp-55" value="" style="rounded=1;whiteSpace=wrap;html=1;arcSize=20;imageHeight=24;fillColor=#F0F0F0;" parent="jprQ5lEr49byNqmnvGfp-50" vertex="1">
          <mxGeometry x="25" y="166.66666666666666" width="65" height="39.2156862745098" as="geometry" />
        </mxCell>
        <mxCell id="jprQ5lEr49byNqmnvGfp-56" value="kernel &lt;br&gt;space" style="text;html=1;strokeColor=none;fillColor=none;align=center;verticalAlign=middle;whiteSpace=wrap;rounded=0;arcSize=20;" parent="jprQ5lEr49byNqmnvGfp-50" vertex="1">
          <mxGeometry x="15" y="174.26470588235293" width="70" height="24.019607843137255" as="geometry" />
        </mxCell>
        <mxCell id="jprQ5lEr49byNqmnvGfp-57" value="user &lt;br&gt;space" style="text;html=1;strokeColor=none;fillColor=none;align=center;verticalAlign=middle;whiteSpace=wrap;rounded=0;" parent="jprQ5lEr49byNqmnvGfp-50" vertex="1">
          <mxGeometry x="12.5" y="98.0392156862745" width="75" height="29.41176470588235" as="geometry" />
        </mxCell>
        <mxCell id="jprQ5lEr49byNqmnvGfp-58" value="software" style="text;html=1;strokeColor=none;fillColor=none;align=center;verticalAlign=middle;whiteSpace=wrap;rounded=0;" parent="jprQ5lEr49byNqmnvGfp-50" vertex="1">
          <mxGeometry x="16.25" y="29.41176470588235" width="60" height="29.41176470588235" as="geometry" />
        </mxCell>
        <mxCell id="jprQ5lEr49byNqmnvGfp-59" value="hardware" style="text;html=1;strokeColor=none;fillColor=none;align=center;verticalAlign=middle;whiteSpace=wrap;rounded=0;" parent="jprQ5lEr49byNqmnvGfp-50" vertex="1">
          <mxGeometry x="10" width="60" height="29.41176470588235" as="geometry" />
        </mxCell>
        <mxCell id="jprQ5lEr49byNqmnvGfp-60" value="OS&amp;nbsp;&amp;nbsp;" style="text;html=1;strokeColor=none;fillColor=none;align=center;verticalAlign=middle;whiteSpace=wrap;rounded=0;" parent="jprQ5lEr49byNqmnvGfp-50" vertex="1">
          <mxGeometry x="20" y="68.62745098039215" width="52.5" height="9.80392156862745" as="geometry" />
        </mxCell>
        <mxCell id="qEZxZb18fNbEGhvGFvHe-18" value="virtual machine" style="text;html=1;strokeColor=none;fillColor=none;align=center;verticalAlign=middle;whiteSpace=wrap;rounded=0;" vertex="1" parent="jprQ5lEr49byNqmnvGfp-50">
          <mxGeometry x="5" y="-39.2156862745098" width="90" height="19.6078431372549" as="geometry" />
        </mxCell>
        <mxCell id="jprQ5lEr49byNqmnvGfp-2" value="" style="rounded=1;whiteSpace=wrap;html=1;arcSize=25;imageHeight=24;" parent="1" vertex="1">
          <mxGeometry x="-2420" y="650" width="420" height="40" as="geometry" />
        </mxCell>
        <mxCell id="qEZxZb18fNbEGhvGFvHe-14" value="" style="rounded=1;whiteSpace=wrap;html=1;arcSize=8;fillColor=#F5F5F5;" vertex="1" parent="1">
          <mxGeometry x="-2280" y="350" width="140" height="290" as="geometry" />
        </mxCell>
        <mxCell id="jprQ5lEr49byNqmnvGfp-27" value="" style="group" parent="1" vertex="1" connectable="0">
          <mxGeometry x="-2410" y="390" width="127.5" height="255" as="geometry" />
        </mxCell>
        <mxCell id="qEZxZb18fNbEGhvGFvHe-15" value="" style="rounded=1;whiteSpace=wrap;html=1;arcSize=8;fillColor=#F5F5F5;" vertex="1" parent="jprQ5lEr49byNqmnvGfp-27">
          <mxGeometry x="-12.5" y="-40" width="140" height="290" as="geometry" />
        </mxCell>
        <mxCell id="jprQ5lEr49byNqmnvGfp-28" value="" style="rounded=1;whiteSpace=wrap;html=1;arcSize=5;imageHeight=24;" parent="jprQ5lEr49byNqmnvGfp-27" vertex="1">
          <mxGeometry width="120" height="240" as="geometry" />
        </mxCell>
        <mxCell id="jprQ5lEr49byNqmnvGfp-29" value="" style="rounded=1;whiteSpace=wrap;html=1;arcSize=5;fillColor=#E8E8E8;" parent="jprQ5lEr49byNqmnvGfp-27" vertex="1">
          <mxGeometry x="10" y="30" width="100" height="200" as="geometry" />
        </mxCell>
        <mxCell id="jprQ5lEr49byNqmnvGfp-30" value="" style="rounded=1;whiteSpace=wrap;html=1;arcSize=15;" parent="jprQ5lEr49byNqmnvGfp-27" vertex="1">
          <mxGeometry x="15" y="60" width="85" height="160" as="geometry" />
        </mxCell>
        <mxCell id="jprQ5lEr49byNqmnvGfp-31" value="" style="rounded=1;whiteSpace=wrap;html=1;arcSize=15;fillColor=#CCCCCC;" parent="jprQ5lEr49byNqmnvGfp-27" vertex="1">
          <mxGeometry x="22.5" y="90" width="67.5" height="70" as="geometry" />
        </mxCell>
        <mxCell id="jprQ5lEr49byNqmnvGfp-32" value="" style="rounded=1;whiteSpace=wrap;html=1;arcSize=20;imageHeight=24;fillColor=#F0F0F0;" parent="jprQ5lEr49byNqmnvGfp-27" vertex="1">
          <mxGeometry x="25" y="170" width="65" height="40" as="geometry" />
        </mxCell>
        <mxCell id="jprQ5lEr49byNqmnvGfp-33" value="kernel &lt;br&gt;space" style="text;html=1;strokeColor=none;fillColor=none;align=center;verticalAlign=middle;whiteSpace=wrap;rounded=0;arcSize=20;" parent="jprQ5lEr49byNqmnvGfp-27" vertex="1">
          <mxGeometry x="15" y="177.75" width="70" height="24.5" as="geometry" />
        </mxCell>
        <mxCell id="jprQ5lEr49byNqmnvGfp-34" value="user &lt;br&gt;space" style="text;html=1;strokeColor=none;fillColor=none;align=center;verticalAlign=middle;whiteSpace=wrap;rounded=0;" parent="jprQ5lEr49byNqmnvGfp-27" vertex="1">
          <mxGeometry x="12.5" y="100" width="75" height="30" as="geometry" />
        </mxCell>
        <mxCell id="jprQ5lEr49byNqmnvGfp-35" value="software" style="text;html=1;strokeColor=none;fillColor=none;align=center;verticalAlign=middle;whiteSpace=wrap;rounded=0;" parent="jprQ5lEr49byNqmnvGfp-27" vertex="1">
          <mxGeometry x="16.25" y="30" width="60" height="30" as="geometry" />
        </mxCell>
        <mxCell id="jprQ5lEr49byNqmnvGfp-36" value="hardware" style="text;html=1;strokeColor=none;fillColor=none;align=center;verticalAlign=middle;whiteSpace=wrap;rounded=0;" parent="jprQ5lEr49byNqmnvGfp-27" vertex="1">
          <mxGeometry x="10" width="60" height="30" as="geometry" />
        </mxCell>
        <mxCell id="jprQ5lEr49byNqmnvGfp-37" value="OS&amp;nbsp;&amp;nbsp;" style="text;html=1;strokeColor=none;fillColor=none;align=center;verticalAlign=middle;whiteSpace=wrap;rounded=0;" parent="jprQ5lEr49byNqmnvGfp-27" vertex="1">
          <mxGeometry x="20" y="70" width="52.5" height="10" as="geometry" />
        </mxCell>
        <mxCell id="qEZxZb18fNbEGhvGFvHe-16" value="virtual machine" style="text;html=1;strokeColor=none;fillColor=none;align=center;verticalAlign=middle;whiteSpace=wrap;rounded=0;" vertex="1" parent="jprQ5lEr49byNqmnvGfp-27">
          <mxGeometry y="-40" width="90" height="20" as="geometry" />
        </mxCell>
        <mxCell id="jprQ5lEr49byNqmnvGfp-39" value="" style="group" parent="1" vertex="1" connectable="0">
          <mxGeometry x="-2270" y="390" width="120" height="240" as="geometry" />
        </mxCell>
        <mxCell id="jprQ5lEr49byNqmnvGfp-40" value="" style="rounded=1;whiteSpace=wrap;html=1;arcSize=5;imageHeight=24;" parent="jprQ5lEr49byNqmnvGfp-39" vertex="1">
          <mxGeometry width="120" height="240" as="geometry" />
        </mxCell>
        <mxCell id="jprQ5lEr49byNqmnvGfp-41" value="" style="rounded=1;whiteSpace=wrap;html=1;arcSize=5;fillColor=#E8E8E8;" parent="jprQ5lEr49byNqmnvGfp-39" vertex="1">
          <mxGeometry x="10" y="30" width="100" height="200" as="geometry" />
        </mxCell>
        <mxCell id="jprQ5lEr49byNqmnvGfp-42" value="" style="rounded=1;whiteSpace=wrap;html=1;arcSize=15;" parent="jprQ5lEr49byNqmnvGfp-39" vertex="1">
          <mxGeometry x="15" y="60" width="85" height="160" as="geometry" />
        </mxCell>
        <mxCell id="jprQ5lEr49byNqmnvGfp-43" value="" style="rounded=1;whiteSpace=wrap;html=1;arcSize=15;fillColor=#CCCCCC;" parent="jprQ5lEr49byNqmnvGfp-39" vertex="1">
          <mxGeometry x="22.5" y="90" width="67.5" height="70" as="geometry" />
        </mxCell>
        <mxCell id="jprQ5lEr49byNqmnvGfp-44" value="" style="rounded=1;whiteSpace=wrap;html=1;arcSize=20;imageHeight=24;fillColor=#F0F0F0;" parent="jprQ5lEr49byNqmnvGfp-39" vertex="1">
          <mxGeometry x="25" y="170" width="65" height="40" as="geometry" />
        </mxCell>
        <mxCell id="jprQ5lEr49byNqmnvGfp-45" value="kernel &lt;br&gt;space" style="text;html=1;strokeColor=none;fillColor=none;align=center;verticalAlign=middle;whiteSpace=wrap;rounded=0;arcSize=20;" parent="jprQ5lEr49byNqmnvGfp-39" vertex="1">
          <mxGeometry x="15" y="177.75" width="70" height="24.5" as="geometry" />
        </mxCell>
        <mxCell id="jprQ5lEr49byNqmnvGfp-46" value="user &lt;br&gt;space" style="text;html=1;strokeColor=none;fillColor=none;align=center;verticalAlign=middle;whiteSpace=wrap;rounded=0;" parent="jprQ5lEr49byNqmnvGfp-39" vertex="1">
          <mxGeometry x="12.5" y="100" width="75" height="30" as="geometry" />
        </mxCell>
        <mxCell id="jprQ5lEr49byNqmnvGfp-47" value="software" style="text;html=1;strokeColor=none;fillColor=none;align=center;verticalAlign=middle;whiteSpace=wrap;rounded=0;" parent="jprQ5lEr49byNqmnvGfp-39" vertex="1">
          <mxGeometry x="16.25" y="30" width="60" height="30" as="geometry" />
        </mxCell>
        <mxCell id="jprQ5lEr49byNqmnvGfp-48" value="hardware" style="text;html=1;strokeColor=none;fillColor=none;align=center;verticalAlign=middle;whiteSpace=wrap;rounded=0;" parent="jprQ5lEr49byNqmnvGfp-39" vertex="1">
          <mxGeometry x="10" width="60" height="30" as="geometry" />
        </mxCell>
        <mxCell id="jprQ5lEr49byNqmnvGfp-49" value="OS&amp;nbsp;&amp;nbsp;" style="text;html=1;strokeColor=none;fillColor=none;align=center;verticalAlign=middle;whiteSpace=wrap;rounded=0;" parent="jprQ5lEr49byNqmnvGfp-39" vertex="1">
          <mxGeometry x="20" y="70" width="52.5" height="10" as="geometry" />
        </mxCell>
        <mxCell id="jprQ5lEr49byNqmnvGfp-61" value="user space" style="text;html=1;strokeColor=none;fillColor=none;align=center;verticalAlign=middle;whiteSpace=wrap;rounded=0;" parent="1" vertex="1">
          <mxGeometry x="-2410" y="310" width="77.5" height="20" as="geometry" />
        </mxCell>
        <mxCell id="jprQ5lEr49byNqmnvGfp-62" value="hypervisor" style="text;html=1;strokeColor=none;fillColor=none;align=center;verticalAlign=middle;whiteSpace=wrap;rounded=0;" parent="1" vertex="1">
          <mxGeometry x="-2420" y="650" width="85" height="30" as="geometry" />
        </mxCell>
        <mxCell id="qEZxZb18fNbEGhvGFvHe-1" value="operating system" style="text;html=1;strokeColor=none;fillColor=none;align=center;verticalAlign=middle;whiteSpace=wrap;rounded=0;" vertex="1" parent="1">
          <mxGeometry x="-2415" y="280" width="110" height="30" as="geometry" />
        </mxCell>
        <mxCell id="qEZxZb18fNbEGhvGFvHe-17" value="virtual machine" style="text;html=1;strokeColor=none;fillColor=none;align=center;verticalAlign=middle;whiteSpace=wrap;rounded=0;" vertex="1" parent="1">
          <mxGeometry x="-2265" y="350" width="90" height="20" as="geometry" />
        </mxCell>
        <mxCell id="qEZxZb18fNbEGhvGFvHe-21" value="physical machine" style="text;html=1;strokeColor=none;fillColor=none;align=center;verticalAlign=middle;whiteSpace=wrap;rounded=0;" vertex="1" parent="1">
          <mxGeometry x="-2450" y="190" width="100" height="20" as="geometry" />
        </mxCell>
      </root>
    </mxGraphModel>
  </diagram>
</mxfile>
